# xmcd CD database file
#
# Track frame offsets:
#	150
#	30972
#	69623
#	93604
#	131552
#	175544
#	206071
#	244391
#	280754
#	312326
#
# Disc length: 4614 seconds
#
# Revision: 4
# Processed by: cddbd v1.5.2PL0 Copyright (c) Steve Scherf et al.
# Submitted via: CDex 1.51
#
DISCID=8b12040a
DTITLE=Keith Jarrett - Solo - The Carnegie Hall Concert [disc 2]
DYEAR=2006
DGENRE=Jazz
TTITLE0=Part VI
TTITLE1=Part VII
TTITLE2=Part VIII
TTITLE3=Part IX
TTITLE4=Part X
TTITLE5=The Good America
TTITLE6=Paint My Heart Red
TTITLE7=My Song
TTITLE8=True Blues
TTITLE9=Time on My Hands
EXTD=Keith Jarrett (b.1945): piano\nRecorded live at Isaac Stern Auditorium, Carnegie Hall, New York US-NY, 2005-09-26.\nEngineer: Martin Pearson\nProduced by Keith Jarrett.\n2CD: ECM 1989/90 [UM B0007362-02] (2006-09-26), UPC 602498562246, BMG D220023. 
EXTD=YEAR: 2006
EXTT0=(Keith Jarrett)
EXTT1=(Keith Jarrett)
EXTT2=(Keith Jarrett)
EXTT3=(Keith Jarrett)
EXTT4=(Keith Jarrett)
EXTT5=(Keith Jarrett)
EXTT6=(Keith Jarrett)
EXTT7=(Keith Jarrett)
EXTT8=(Keith Jarrett)
EXTT9=(Vincent Youmans//Harold Adamson/Mack Gordon)
PLAYORDER=
